<?xml version='1.0' encoding='utf-8'?>
<svg xmlns="http://www.w3.org/2000/svg" enable-background="new 0 0 63.65 71.05" version="1.1" viewBox="0 0 63.65 71.05">
<g clip-rule="evenodd" fill-rule="evenodd">
		<path d="m0.75 68.25c21.7-9.3 32.467-13.884 32.3-13.75l30.601-2-2.5 18.55-61.151-1.75 0.75-1.05z" fill="#25382E"/>
		<polygon points="0.65 69 2.65 56.65 58.65 57.65 60.65 70.65" fill="#487A5C"/>
		<polygon points="60.65 70.65 58.65 57.65 62.75 47.55 63.25 52.3" fill="#518D68"/>
		<polygon points="62.75 47.55 58.65 57.65 2.65 56.65 20.25 48.55" fill="#7FB28F"/>
		<polygon points="4.15 55.8 4.3 55.3 14.15 48 61.25 47.65 56.3 56.25" fill="#25382E"/>
		<polygon points="30.3 42.65 55.5 44.65 56 55.65 4.3 55.3 6 18.8 30.65 18.05" fill="#487A5C"/>
		<polygon points="55.5 44.65 60.25 42.05 60.75 47.55 56 55.65" fill="#518D68"/>
		<polygon points="30.65 18.05 35 17.2 39.25 38.05 30.3 42.65" fill="#518D68"/>
		<polygon points="55.5 44.65 30.3 42.65 39.25 38.05 60.25 42.05" fill="#7FB28F"/>
		<polygon points="6 18.8 13.75 17.05 35 17.2 30.6 18.45" fill="#7FB28F"/>
		<path d="m13.9 18.25c-0.233-0.033-0.433-0.083-0.6-0.15l-0.15-0.15-0.65-7.4 2 0.75 0.3 6.5c-0.167 0.333-0.467 0.483-0.9 0.45z" fill="#487A5C"/>
		<path d="m23.9 18.2c-0.233 0-0.4-0.067-0.5-0.2l-0.05-0.2-0.1-6.5 2.25 0.5-0.95 6.1c-0.033 0.2-0.25 0.3-0.65 0.3z" fill="#487A5C"/>
		<path d="m6.3 0.25c3.6-0.133 7.367-0.217 11.3-0.25 7.867-0.033 12.617 0.283 14.25 0.95 1.834 0.733 3.067 2.716 3.7 5.95 0.601 3.133 0.384 4.9-0.649 5.3-0.867 0.333-5.817 0.4-14.851 0.2-8.933-0.233-14.283-0.533-16.05-0.9-1.7-0.367-2.167-2.317-1.4-5.85s2-5.333 3.7-5.4z" fill="#487A5C"/>
		<path d="m7 2.05c1.4-0.433 5.383-0.55 11.95-0.35 6.867 0.2 11.05 0.65 12.55 1.35 1.467 0.667 2.316 2.017 2.55 4.05 0.233 1.833-0.033 2.983-0.8 3.45-0.5 0.3-4.767 0.267-12.8-0.1-9.733-0.433-14.633-0.65-14.7-0.65-1.7 0-2.217-1.216-1.55-3.65 0.7-2.367 1.633-3.733 2.8-4.1z" fill="#25382E"/>
	<path d="m19.65 3.75c1.1 0.067 1.65 1.017 1.65 2.85-0.033 1.833-0.65 2.683-1.85 2.55-1.167-0.133-1.684-1.083-1.55-2.85 0.167-1.767 0.75-2.617 1.75-2.55zm0.25 3.4c0.434-0.033 0.617-0.467 0.55-1.3-0.034-0.8-0.25-1.184-0.65-1.15-0.567 0.067-0.8 0.5-0.7 1.3 0.067 0.833 0.333 1.217 0.8 1.15z" fill="#DD2736"/>
	<path d="m15.15 3.55c1.133 0.067 1.684 1.017 1.65 2.85 0 1.867-0.6 2.733-1.8 2.6-1.167-0.133-1.683-1.083-1.55-2.85s0.7-2.633 1.7-2.6zm0.3 3.45c0.433-0.033 0.617-0.467 0.55-1.3-0.033-0.8-0.25-1.184-0.65-1.15-0.567 0.034-0.8 0.467-0.7 1.3 0.067 0.8 0.333 1.183 0.8 1.15z" fill="#DD2736"/>
	<path d="m25.7 3.9c1.1 0.067 1.65 1.017 1.65 2.85-0.033 1.867-0.65 2.733-1.85 2.6-1.167-0.133-1.683-1.083-1.55-2.85s0.717-2.633 1.75-2.6zm0.25 3.45c0.433-0.033 0.617-0.467 0.55-1.3-0.033-0.8-0.25-1.183-0.65-1.15-0.567 0.033-0.8 0.467-0.7 1.3 0.067 0.8 0.333 1.183 0.8 1.15z" fill="#DD2736"/>
	<path d="m29.7 4c1.133 0.067 1.684 1.017 1.649 2.85 0 1.867-0.6 2.733-1.8 2.6-1.166-0.133-1.682-1.083-1.549-2.85s0.7-2.633 1.7-2.6zm0.25 3.4c0.433-0.033 0.633-0.45 0.6-1.25-0.033-0.833-0.25-1.233-0.65-1.2-0.533 0.066-0.767 0.5-0.7 1.3 0.067 0.833 0.317 1.217 0.75 1.15z" fill="#DD2736"/>
	<path d="m22.6 8.1c0.3 0 0.467 0.167 0.5 0.5s-0.067 0.517-0.3 0.55c-0.233 0.067-0.417-0.1-0.55-0.5-0.133-0.367-0.017-0.55 0.35-0.55z" fill="#DD2736"/>
	<g fill="#DD2736">
		<path d="m7.85 3.7c0.367-0.233 0.917-0.217 1.65 0.05l0.05 0.75c-1.066-0.6-1.667-0.55-1.8 0.15-0.033 0.2 0.133 0.383 0.5 0.55 0.2 0.1 0.517 0.233 0.95 0.4 0.367 0.233 0.6 0.517 0.7 0.85 0.133 0.466 0.017 0.933-0.35 1.4-0.367 0.5-1 0.583-1.9 0.25l-1.2-0.65 0.6-0.7 0.75 0.55c0.6 0.367 0.983 0.417 1.15 0.15 0.633-0.667 0.2-1.267-1.3-1.8-0.533-0.167-0.733-0.483-0.6-0.95 0.1-0.433 0.367-0.767 0.8-1z"/>
		<polygon points="8.05 2.75 8.4 2.7 8.3 8.8 7.75 8.75"/>
		<polygon points="8.65 2.9 8.9 2.8 9 8.65 8.5 8.65"/>
	</g>
	<path d="m10.25 21.25c0.267 0 0.4 0.15 0.4 0.45s-0.133 0.45-0.4 0.45-0.433-0.15-0.5-0.45c-0.033-0.3 0.133-0.45 0.5-0.45z" fill="#25382E"/>
	<path d="m12 21.25c0.267 0 0.4 0.15 0.4 0.45s-0.133 0.45-0.4 0.45-0.433-0.15-0.5-0.45c-0.033-0.3 0.133-0.45 0.5-0.45z" fill="#25382E"/>
	<path d="m13.75 21.25c0.267 0 0.4 0.15 0.4 0.45s-0.133 0.45-0.4 0.45-0.433-0.15-0.5-0.45c-0.033-0.3 0.133-0.45 0.5-0.45z" fill="#25382E"/>
	<path d="m15.55 21.25c0.267 0 0.4 0.15 0.4 0.45s-0.133 0.45-0.4 0.45-0.417-0.15-0.45-0.45c-0.067-0.3 0.083-0.45 0.45-0.45z" fill="#25382E"/>
	<path d="m17.35 21.25c0.267 0 0.4 0.15 0.4 0.45s-0.133 0.45-0.4 0.45-0.417-0.15-0.45-0.45c-0.067-0.3 0.083-0.45 0.45-0.45z" fill="#25382E"/>
	<path d="m19.3 21.25c0.267 0 0.4 0.15 0.4 0.45s-0.133 0.45-0.4 0.45-0.417-0.15-0.45-0.45c-0.067-0.3 0.083-0.45 0.45-0.45z" fill="#25382E"/>
	<path d="m21 21.25c0.267 0 0.4 0.15 0.4 0.45s-0.133 0.45-0.4 0.45-0.433-0.15-0.5-0.45c-0.033-0.3 0.133-0.45 0.5-0.45z" fill="#25382E"/>
	<path d="m22.75 21.25c0.267 0 0.4 0.15 0.4 0.45s-0.133 0.45-0.4 0.45-0.433-0.15-0.5-0.45c-0.033-0.3 0.133-0.45 0.5-0.45z" fill="#25382E"/>
	<path d="m24.35 21.25c0.267 0 0.4 0.15 0.4 0.45s-0.133 0.45-0.4 0.45-0.417-0.15-0.45-0.45c-0.067-0.3 0.083-0.45 0.45-0.45z" fill="#25382E"/>
	<path d="m10.25 22.75c0.267 0 0.4 0.15 0.4 0.45s-0.133 0.45-0.4 0.45-0.433-0.15-0.5-0.45c-0.033-0.3 0.133-0.45 0.5-0.45z" fill="#25382E"/>
	<path d="m12 22.75c0.267 0 0.4 0.15 0.4 0.45s-0.133 0.45-0.4 0.45-0.433-0.15-0.5-0.45c-0.033-0.3 0.133-0.45 0.5-0.45z" fill="#25382E"/>
	<path d="m13.75 22.75c0.267 0 0.4 0.15 0.4 0.45s-0.133 0.45-0.4 0.45-0.433-0.15-0.5-0.45c-0.033-0.3 0.133-0.45 0.5-0.45z" fill="#25382E"/>
	<path d="m15.55 22.75c0.267 0 0.4 0.15 0.4 0.45s-0.133 0.45-0.4 0.45-0.417-0.15-0.45-0.45c-0.067-0.3 0.083-0.45 0.45-0.45z" fill="#25382E"/>
	<path d="m17.35 22.75c0.267 0 0.4 0.15 0.4 0.45s-0.133 0.45-0.4 0.45-0.417-0.15-0.45-0.45c-0.067-0.3 0.083-0.45 0.45-0.45z" fill="#25382E"/>
	<path d="m19.3 22.75c0.267 0 0.4 0.15 0.4 0.45s-0.133 0.45-0.4 0.45-0.417-0.15-0.45-0.45c-0.067-0.3 0.083-0.45 0.45-0.45z" fill="#25382E"/>
	<path d="m21 22.75c0.267 0 0.4 0.15 0.4 0.45s-0.133 0.45-0.4 0.45-0.433-0.15-0.5-0.45c-0.033-0.3 0.133-0.45 0.5-0.45z" fill="#25382E"/>
	<path d="m22.75 22.75c0.267 0 0.4 0.15 0.4 0.45s-0.133 0.45-0.4 0.45-0.433-0.15-0.5-0.45c-0.033-0.3 0.133-0.45 0.5-0.45z" fill="#25382E"/>
	<path d="m24.35 22.75c0.267 0 0.4 0.15 0.4 0.45s-0.133 0.45-0.4 0.45-0.417-0.15-0.45-0.45c-0.067-0.3 0.083-0.45 0.45-0.45z" fill="#25382E"/>
	<path d="m10.3 24.3c0.267 0 0.4 0.15 0.4 0.45s-0.133 0.45-0.4 0.45-0.417-0.15-0.45-0.45c-0.067-0.3 0.083-0.45 0.45-0.45z" fill="#25382E"/>
	<path d="m12.05 24.3c0.267 0 0.4 0.15 0.4 0.45s-0.133 0.45-0.4 0.45-0.417-0.15-0.45-0.45c-0.067-0.3 0.083-0.45 0.45-0.45z" fill="#25382E"/>
	<path d="m13.8 24.3c0.267 0 0.4 0.15 0.4 0.45s-0.133 0.45-0.4 0.45-0.417-0.15-0.45-0.45c-0.067-0.3 0.083-0.45 0.45-0.45z" fill="#25382E"/>
	<path d="m15.6 24.3c0.267 0 0.4 0.15 0.4 0.45s-0.133 0.45-0.4 0.45-0.417-0.15-0.45-0.45c-0.067-0.3 0.083-0.45 0.45-0.45z" fill="#25382E"/>
	<path d="m17.4 24.3c0.267 0 0.4 0.15 0.4 0.45s-0.133 0.45-0.4 0.45-0.417-0.15-0.45-0.45c-0.067-0.3 0.083-0.45 0.45-0.45z" fill="#25382E"/>
	<path d="m19.35 24.3c0.267 0 0.4 0.15 0.4 0.45s-0.133 0.45-0.4 0.45-0.417-0.15-0.45-0.45c-0.067-0.3 0.083-0.45 0.45-0.45z" fill="#25382E"/>
	<path d="m21.05 24.3c0.267 0 0.4 0.15 0.4 0.45s-0.133 0.45-0.4 0.45-0.417-0.15-0.45-0.45c-0.067-0.3 0.083-0.45 0.45-0.45z" fill="#25382E"/>
	<path d="m22.8 24.3c0.267 0 0.4 0.15 0.4 0.45s-0.133 0.45-0.4 0.45-0.417-0.15-0.45-0.45c-0.067-0.3 0.083-0.45 0.45-0.45z" fill="#25382E"/>
	<path d="m24.4 24.3c0.267 0 0.4 0.15 0.4 0.45s-0.133 0.45-0.4 0.45-0.417-0.15-0.45-0.45c-0.067-0.3 0.083-0.45 0.45-0.45z" fill="#25382E"/>
	<path d="m10.25 26.05c0.267 0 0.4 0.15 0.4 0.45s-0.133 0.45-0.4 0.45-0.433-0.15-0.5-0.45c-0.033-0.3 0.133-0.45 0.5-0.45z" fill="#25382E"/>
	<path d="m12 26.05c0.267 0 0.4 0.15 0.4 0.45s-0.133 0.45-0.4 0.45-0.433-0.15-0.5-0.45c-0.033-0.3 0.133-0.45 0.5-0.45z" fill="#25382E"/>
	<path d="m13.75 26.05c0.267 0 0.4 0.15 0.4 0.45s-0.133 0.45-0.4 0.45-0.433-0.15-0.5-0.45c-0.033-0.3 0.133-0.45 0.5-0.45z" fill="#25382E"/>
	<path d="m15.55 26.05c0.267 0 0.4 0.15 0.4 0.45s-0.133 0.45-0.4 0.45-0.417-0.15-0.45-0.45c-0.067-0.3 0.083-0.45 0.45-0.45z" fill="#25382E"/>
	<path d="m17.35 26.05c0.267 0 0.4 0.15 0.4 0.45s-0.133 0.45-0.4 0.45-0.417-0.15-0.45-0.45c-0.067-0.3 0.083-0.45 0.45-0.45z" fill="#25382E"/>
	<path d="m19.3 26.05c0.267 0 0.4 0.15 0.4 0.45s-0.133 0.45-0.4 0.45-0.417-0.15-0.45-0.45c-0.067-0.3 0.083-0.45 0.45-0.45z" fill="#25382E"/>
	<path d="m21 26.05c0.267 0 0.4 0.15 0.4 0.45s-0.133 0.45-0.4 0.45-0.433-0.15-0.5-0.45c-0.033-0.3 0.133-0.45 0.5-0.45z" fill="#25382E"/>
	<path d="m22.75 26.05c0.267 0 0.4 0.15 0.4 0.45s-0.133 0.45-0.4 0.45-0.433-0.15-0.5-0.45c-0.033-0.3 0.133-0.45 0.5-0.45z" fill="#25382E"/>
	<path d="m24.35 26.05c0.267 0 0.4 0.15 0.4 0.45s-0.133 0.45-0.4 0.45-0.417-0.15-0.45-0.45c-0.067-0.3 0.083-0.45 0.45-0.45z" fill="#25382E"/>
	<path d="m10.15 27.7c0.267 0 0.4 0.15 0.4 0.45 0 0.267-0.133 0.4-0.4 0.4s-0.417-0.133-0.45-0.4c-0.067-0.3 0.083-0.45 0.45-0.45z" fill="#25382E"/>
	<path d="m11.9 27.7c0.267 0 0.4 0.15 0.4 0.45 0 0.267-0.133 0.4-0.4 0.4s-0.417-0.133-0.45-0.4c-0.067-0.3 0.083-0.45 0.45-0.45z" fill="#25382E"/>
	<path d="m13.65 27.7c0.267 0 0.4 0.15 0.4 0.45 0 0.267-0.133 0.4-0.4 0.4s-0.417-0.133-0.45-0.4c-0.067-0.3 0.083-0.45 0.45-0.45z" fill="#25382E"/>
	<path d="m15.5 27.7c0.267 0 0.4 0.15 0.4 0.45 0 0.267-0.133 0.4-0.4 0.4s-0.433-0.133-0.5-0.4c-0.033-0.3 0.133-0.45 0.5-0.45z" fill="#25382E"/>
	<path d="m17.3 27.7c0.267 0 0.4 0.15 0.4 0.45 0 0.267-0.133 0.4-0.4 0.4s-0.417-0.133-0.45-0.4c-0.067-0.3 0.083-0.45 0.45-0.45z" fill="#25382E"/>
	<path d="m19.25 27.7c0.267 0 0.4 0.15 0.4 0.45 0 0.267-0.133 0.4-0.4 0.4s-0.433-0.133-0.5-0.4c-0.033-0.3 0.133-0.45 0.5-0.45z" fill="#25382E"/>
	<path d="m20.9 27.7c0.267 0 0.4 0.15 0.4 0.45 0 0.267-0.133 0.4-0.4 0.4s-0.417-0.133-0.45-0.4c-0.067-0.3 0.083-0.45 0.45-0.45z" fill="#25382E"/>
	<path d="m22.65 27.7c0.267 0 0.4 0.15 0.4 0.45 0 0.267-0.133 0.4-0.4 0.4s-0.417-0.133-0.45-0.4c-0.067-0.3 0.083-0.45 0.45-0.45z" fill="#25382E"/>
	<path d="m24.3 27.7c0.267 0 0.4 0.15 0.4 0.45 0 0.267-0.133 0.4-0.4 0.4s-0.417-0.133-0.45-0.4c-0.067-0.3 0.083-0.45 0.45-0.45z" fill="#25382E"/>
	<path d="m10.3 29.25c0.267 0 0.4 0.15 0.4 0.45s-0.133 0.45-0.4 0.45-0.417-0.15-0.45-0.45c-0.067-0.3 0.083-0.45 0.45-0.45z" fill="#25382E"/>
	<path d="m12.05 29.25c0.267 0 0.4 0.15 0.4 0.45s-0.133 0.45-0.4 0.45-0.417-0.15-0.45-0.45c-0.067-0.3 0.083-0.45 0.45-0.45z" fill="#25382E"/>
	<path d="m13.8 29.25c0.267 0 0.4 0.15 0.4 0.45s-0.133 0.45-0.4 0.45-0.417-0.15-0.45-0.45c-0.067-0.3 0.083-0.45 0.45-0.45z" fill="#25382E"/>
	<path d="m15.6 29.25c0.267 0 0.4 0.15 0.4 0.45s-0.133 0.45-0.4 0.45-0.417-0.15-0.45-0.45c-0.067-0.3 0.083-0.45 0.45-0.45z" fill="#25382E"/>
	<path d="m17.4 29.25c0.267 0 0.4 0.15 0.4 0.45s-0.133 0.45-0.4 0.45-0.417-0.15-0.45-0.45c-0.067-0.3 0.083-0.45 0.45-0.45z" fill="#25382E"/>
	<path d="m19.35 29.25c0.267 0 0.4 0.15 0.4 0.45s-0.133 0.45-0.4 0.45-0.417-0.15-0.45-0.45c-0.067-0.3 0.083-0.45 0.45-0.45z" fill="#25382E"/>
	<path d="m21.05 29.25c0.267 0 0.4 0.15 0.4 0.45s-0.133 0.45-0.4 0.45-0.417-0.15-0.45-0.45c-0.067-0.3 0.083-0.45 0.45-0.45z" fill="#25382E"/>
	<path d="m22.8 29.25c0.267 0 0.4 0.15 0.4 0.45s-0.133 0.45-0.4 0.45-0.417-0.15-0.45-0.45c-0.067-0.3 0.083-0.45 0.45-0.45z" fill="#25382E"/>
	<path d="m24.4 29.25c0.267 0 0.4 0.15 0.4 0.45s-0.133 0.45-0.4 0.45-0.417-0.15-0.45-0.45c-0.067-0.3 0.083-0.45 0.45-0.45z" fill="#25382E"/>
	<path d="m10.1 30.8c0.267 0 0.4 0.15 0.4 0.45s-0.133 0.45-0.4 0.45-0.417-0.15-0.45-0.45c-0.067-0.3 0.083-0.45 0.45-0.45z" fill="#25382E"/>
	<path d="m11.85 30.8c0.267 0 0.4 0.15 0.4 0.45s-0.133 0.45-0.4 0.45-0.417-0.15-0.45-0.45c-0.067-0.3 0.083-0.45 0.45-0.45z" fill="#25382E"/>
	<path d="m13.6 30.8c0.267 0 0.4 0.15 0.4 0.45s-0.133 0.45-0.4 0.45-0.417-0.15-0.45-0.45c-0.067-0.3 0.083-0.45 0.45-0.45z" fill="#25382E"/>
	<path d="m15.4 30.8c0.267 0 0.4 0.15 0.4 0.45s-0.133 0.45-0.4 0.45-0.417-0.15-0.45-0.45c-0.067-0.3 0.083-0.45 0.45-0.45z" fill="#25382E"/>
	<path d="m17.25 30.8c0.267 0 0.4 0.15 0.4 0.45s-0.133 0.45-0.4 0.45-0.433-0.15-0.5-0.45c-0.033-0.3 0.133-0.45 0.5-0.45z" fill="#25382E"/>
	<path d="m19.15 30.8c0.267 0 0.4 0.15 0.4 0.45s-0.133 0.45-0.4 0.45-0.417-0.15-0.45-0.45c-0.067-0.3 0.083-0.45 0.45-0.45z" fill="#25382E"/>
	<path d="m20.85 30.8c0.267 0 0.4 0.15 0.4 0.45s-0.133 0.45-0.4 0.45-0.417-0.15-0.45-0.45c-0.067-0.3 0.083-0.45 0.45-0.45z" fill="#25382E"/>
	<path d="m22.6 30.8c0.267 0 0.4 0.15 0.4 0.45s-0.133 0.45-0.4 0.45-0.417-0.15-0.45-0.45c-0.067-0.3 0.083-0.45 0.45-0.45z" fill="#25382E"/>
	<path d="m24.25 30.8c0.267 0 0.4 0.15 0.4 0.45s-0.133 0.45-0.4 0.45-0.433-0.15-0.5-0.45c-0.033-0.3 0.133-0.45 0.5-0.45z" fill="#25382E"/>
	<path d="m10.1 32.3c0.267 0 0.4 0.15 0.4 0.45s-0.133 0.45-0.4 0.45-0.417-0.15-0.45-0.45c-0.067-0.3 0.083-0.45 0.45-0.45z" fill="#25382E"/>
	<path d="m11.85 32.3c0.267 0 0.4 0.15 0.4 0.45s-0.133 0.45-0.4 0.45-0.417-0.15-0.45-0.45c-0.067-0.3 0.083-0.45 0.45-0.45z" fill="#25382E"/>
	<path d="m13.6 32.3c0.267 0 0.4 0.15 0.4 0.45s-0.133 0.45-0.4 0.45-0.417-0.15-0.45-0.45c-0.067-0.3 0.083-0.45 0.45-0.45z" fill="#25382E"/>
	<path d="m15.4 32.3c0.267 0 0.4 0.15 0.4 0.45s-0.133 0.45-0.4 0.45-0.417-0.15-0.45-0.45c-0.067-0.3 0.083-0.45 0.45-0.45z" fill="#25382E"/>
	<path d="m17.25 32.3c0.267 0 0.4 0.15 0.4 0.45s-0.133 0.45-0.4 0.45-0.433-0.15-0.5-0.45c-0.033-0.3 0.133-0.45 0.5-0.45z" fill="#25382E"/>
	<path d="m19.15 32.3c0.267 0 0.4 0.15 0.4 0.45s-0.133 0.45-0.4 0.45-0.417-0.15-0.45-0.45c-0.067-0.3 0.083-0.45 0.45-0.45z" fill="#25382E"/>
	<path d="m20.85 32.3c0.267 0 0.4 0.15 0.4 0.45s-0.133 0.45-0.4 0.45-0.417-0.15-0.45-0.45c-0.067-0.3 0.083-0.45 0.45-0.45z" fill="#25382E"/>
	<path d="m22.6 32.3c0.267 0 0.4 0.15 0.4 0.45s-0.133 0.45-0.4 0.45-0.417-0.15-0.45-0.45c-0.067-0.3 0.083-0.45 0.45-0.45z" fill="#25382E"/>
	<path d="m24.25 32.3c0.267 0 0.4 0.15 0.4 0.45s-0.133 0.45-0.4 0.45-0.433-0.15-0.5-0.45c-0.033-0.3 0.133-0.45 0.5-0.45z" fill="#25382E"/>
	<path d="m10.05 33.7c0.267 0 0.4 0.15 0.4 0.45 0 0.267-0.133 0.4-0.4 0.4s-0.417-0.133-0.45-0.4c-0.067-0.3 0.083-0.45 0.45-0.45z" fill="#25382E"/>
	<path d="m11.8 33.7c0.267 0 0.4 0.15 0.4 0.45 0 0.267-0.133 0.4-0.4 0.4s-0.417-0.133-0.45-0.4c-0.067-0.3 0.083-0.45 0.45-0.45z" fill="#25382E"/>
	<path d="m13.55 33.7c0.267 0 0.4 0.15 0.4 0.45 0 0.267-0.133 0.4-0.4 0.4s-0.417-0.133-0.45-0.4c-0.067-0.3 0.083-0.45 0.45-0.45z" fill="#25382E"/>
	<path d="m15.35 33.7c0.267 0 0.4 0.15 0.4 0.45 0 0.267-0.133 0.4-0.4 0.4s-0.417-0.133-0.45-0.4c-0.067-0.3 0.083-0.45 0.45-0.45z" fill="#25382E"/>
	<path d="m17.15 33.7c0.267 0 0.4 0.15 0.4 0.45 0 0.267-0.133 0.4-0.4 0.4s-0.417-0.133-0.45-0.4c-0.067-0.3 0.083-0.45 0.45-0.45z" fill="#25382E"/>
	<path d="m19.1 33.7c0.267 0 0.4 0.15 0.4 0.45 0 0.267-0.133 0.4-0.4 0.4s-0.417-0.133-0.45-0.4c-0.067-0.3 0.083-0.45 0.45-0.45z" fill="#25382E"/>
	<path d="m20.8 33.7c0.267 0 0.4 0.15 0.4 0.45 0 0.267-0.133 0.4-0.4 0.4s-0.417-0.133-0.45-0.4c-0.067-0.3 0.083-0.45 0.45-0.45z" fill="#25382E"/>
	<path d="m22.55 33.7c0.267 0 0.4 0.15 0.4 0.45 0 0.267-0.133 0.4-0.4 0.4s-0.417-0.133-0.45-0.4c-0.067-0.3 0.083-0.45 0.45-0.45z" fill="#25382E"/>
	<path d="m24.15 33.7c0.267 0 0.4 0.15 0.4 0.45 0 0.267-0.133 0.4-0.4 0.4s-0.417-0.133-0.45-0.4c-0.067-0.3 0.083-0.45 0.45-0.45z" fill="#25382E"/>
	<polygon points="32.75 42.2 35 41 38.65 41.3 37.25 42.45" fill="#487A5C"/>
	<polygon points="43.05 42 42.65 43.05 38.9 42.55 40.25 41.5" fill="#487A5C"/>
	<polygon points="44.4 42.15 47.6 42.65 47.4 43.45 43.65 43.15" fill="#487A5C"/>
	<polygon points="48.6 42.7 51.3 43.05 51.05 43.75 48.05 43.4" fill="#487A5C"/>
	<polygon points="52.5 43.05 56.1 43.65 55.25 44.15 51.85 43.75" fill="#487A5C"/>
	<polygon points="37.1 39.55 39.8 40.15 39 40.9 35.75 40.45" fill="#487A5C"/>
	<polygon points="40.9 40.3 43.4 40.75 43 41.65 40.25 41.05" fill="#487A5C"/>
	<polygon points="44.8 41 47.85 41.45 47.75 42.4 44.4 41.7" fill="#487A5C"/>
	<polygon points="49.15 41.55 51.6 41.9 51.3 42.55 48.6 42.2" fill="#487A5C"/>
	<polygon points="53.15 42 57.1 42.8 56.5 43.45 52.5 42.65" fill="#487A5C"/>
	<polygon points="40.15 39.65 38.4 39.05 39.5 38.5 41.05 38.9" fill="#487A5C"/>
	<polygon points="41.9 39.05 44 39.4 43.5 40.2 40.9 39.75" fill="#487A5C"/>
	<polygon points="45.6 39.65 48.25 40.2 48.1 41.15 44.6 40.4" fill="#487A5C"/>
	<polygon points="49.4 40.4 51.8 40.8 51.3 41.5 48.9 41" fill="#487A5C"/>
	<polygon points="54.05 41.15 58.15 42 57.65 42.4 53.5 41.65" fill="#487A5C"/>
	<path d="m31.3 18.9c0.334 12.267 0.533 18.883 0.601 19.85 0.066 0.934 2.35 0.566 6.85-1.1l-7.6 3.399 0.149-22.149z" fill="#46775A"/>
	<path d="m31.8 18.5l2.851-0.6 1.149 4.65c-0.866-2.7-1.5-4.05-1.899-4.05h-2.101z" fill="#7FB28F"/>
	<path d="m32 11.9c1.267-0.1 2.3-0.25 3.1-0.45-0.199 0.4-0.683 0.65-1.449 0.75h-12.051c-0.9 0-2.967-0.083-6.2-0.25-3.467-0.167-5.5-0.25-6.1-0.25-1.7 0.033-2.933 0.017-3.7-0.05-1.367-0.133-2.15-0.467-2.35-1-0.5-1.233-0.65-2.717-0.45-4.45 0.1-1 0.45-2.083 1.05-3.25 0.633-1.233 1.233-1.95 1.8-2.15-0.433 0.567-0.85 1.267-1.25 2.1-0.8 1.7-1.167 3.283-1.1 4.75 0.1 1.6 0.483 2.617 1.15 3.05 0.4 0.267 1.5 0.45 3.3 0.55 1.6 0.1 5.783 0.25 12.55 0.45 6.867 0.167 10.766 0.233 11.7 0.2z" fill="#306548"/>
	<path d="m32.15 1.3c0.666 0.433 1.35 1.333 2.05 2.7 0.6 1.133 0.967 2.05 1.1 2.75 0.134 0.767 0.084 1.617-0.149 2.55 0-0.533-0.051-1.133-0.15-1.8-0.167-0.867-0.467-1.733-0.9-2.6-0.666-1.333-1.483-2.316-2.449-2.95-0.934-0.6-2.25-0.983-3.95-1.15l-13.852-0.65h7.55c6.267 0.167 9.85 0.55 10.75 1.15z" fill="#7FB28F"/>
	<polygon points="8.6 48.7 53.35 48.95 54.5 49.95 7 49.7" fill="#3B634C"/>
	<polygon points="6.6 52.2 8.6 51.05 53.6 51.2 54.25 52.05" fill="#3B634C"/>
	<polygon points="6.85 53.95 8.25 52.95 53.85 53.2 54.6 54.2" fill="#3B634C"/>
	<polygon points="6.75 19.45 7.5 20.3 6.6 52.2 5.35 54.2" fill="#518D68"/>
	<polygon points="8.25 19.8 29.75 19.2 29.5 20.3" fill="#7FB28F"/>
	<polygon points="55.5 54.95 54.35 46.55 30.5 43.2 54.75 45.55" fill="#7FB28F"/>
	<polygon points="59.5 69.95 56.85 59.8 3.6 57.3 57.75 58.7" fill="#7FB28F"/>
</g>
</svg>