<svg id="Layer_1" data-name="Layer 1" xmlns="http://www.w3.org/2000/svg" viewBox="0 0 916.734 586.036">
  <path d="M859.923,586.036c29.723,0,54.374-25,56.44-57.23,4.723-73.673-35.406-144.135-135.113-163.038-61.9-11.734-131.79-95.762-164.131-159.679C561.606,96.374,484.7,42.11,405.368,42.11c-129.53,0-147.747,70.663-204.172,157.444C101.887,352.291,58.56,354.379,9.13,456.358c-10.03,20.7-9.866,48.527-8.4,72.455,1.979,32.235,26.719,57.223,56.44,57.223Z" fill="#f3f5fd"></path>
  <g>
    <rect x="115.67" y="71.053" width="280.435" height="504.169" fill="#fff"></rect>
    <polygon points="115.67 575.222 321.155 575.222 321.155 105.096 115.67 71.053 115.67 575.222" fill="#f3f5fd"></polygon>
    <path d="M115.67,71.053H396.105V575.222H115.67V71.053M104.856,60.239v525.8H406.919V60.239Z" fill="#dee8f5"></path>
    <circle cx="295.329" cy="323.137" r="12.695" fill="#fff"></circle>
  </g>
  <g>
    <g>
      <g>
        <path d="M394.12,171.991s8.042-3.454,8.042-24.581l16.165-1.647s-3.332,18.668,4.233,25.3Z" fill="#FAA896"></path>
        <path d="M393.794,138.531c.581,6.458,3.561,12.772,9.008,15.289a40.5,40.5,0,0,0,19.079,4.189c17.549,0,17.351-39.918,9.706-48.295s-32.332-5.494-36.342,7.141C393.171,123.389,393.242,132.385,393.794,138.531Z" fill="#FAA896"></path>
      </g>
      <path d="M430.663,125.927a66.847,66.847,0,0,0,10.167-.857s-1.029-25.922-28.558-24.444a51.339,51.339,0,0,0-10.688.63c-8.274,1.269-20.006,9.729-21.9,30.9-.868,9.713-4.217,18.869-6.772,24.666A4.473,4.473,0,0,0,377,163.1l58.979-.468a4.467,4.467,0,0,0,4.281-5.759C437.051,146.256,431.183,139.744,430.663,125.927Z" fill="#0f1011"></path>
    </g>
    <g>
      <path d="M462.154,575.217l-20.854-2.48c.939-7.893,2-17.374,2.072-18.928v.245h21C464.367,554.683,464.367,556.6,462.154,575.217Z" fill="#FAA896"></path>
      <path d="M378.478,577.727l-21-.068s.07-21.685.07-23.605h21C378.548,555.98,378.478,577.727,378.478,577.727Z" fill="#FAA896"></path>
      <path d="M432.906,568.586l37-.631c-1.738-44.031-1.845-90.218-2.386-134.356C460.3,386.025,456.5,333.782,447.584,286.55l-77.449-4.03s-1.716,31.36-2.4,43.786c-3.945,71.394-11.143,171.95-15.662,241.087l36.868,3.116c6.643-67.786,16.923-166.556,23.246-237.767,7.261,34.669,12.2,70.568,18.515,104.94C431.957,480.708,433.025,525.687,432.906,568.586Z" fill="#262626"></path>
      <path d="M404.006,585.849a4.107,4.107,0,0,0,4.089-4.127q0-.15-.012-.3h0a4.11,4.11,0,0,0-2.659-3.529l-24.443-8.187a3.463,3.463,0,0,0-2.872.32,19.112,19.112,0,0,1-11.468,3.4,17.031,17.031,0,0,1-8.82-3.222,1.546,1.546,0,0,0-2.527,1.2v11.952a2.678,2.678,0,0,0,2.678,2.678h.01Z" fill="#c1d8ed"></path>
      <path d="M487.74,585.849a4.106,4.106,0,0,0,4.088-4.125c0-.1,0-.2-.012-.3h0a4.108,4.108,0,0,0-2.658-3.529l-24.443-8.187a3.463,3.463,0,0,0-2.872.32,19.112,19.112,0,0,1-11.468,3.4,17.034,17.034,0,0,1-8.821-3.222,1.546,1.546,0,0,0-2.527,1.2v11.952a2.678,2.678,0,0,0,2.678,2.678h.011Z" fill="#c1d8ed"></path>
    </g>
    <g>
      <g>
        <path d="M530.373,241.783c2.98,0,12.943-1.574,13.654.957.427,1.518-7,3.31-7,3.31" fill="#FAA896"></path>
        <path d="M528.808,253.73s20.114,8.264,31.67-1.161a1.888,1.888,0,0,0-1.082-3.346c-7.791-.459-23.794-2.03-21.925-7.167H524.908" fill="#FAA896"></path>
      </g>
      <g>
        <path d="M475.976,236.507c2.966-.286,12.732-2.809,13.683-.358.571,1.469-6.648,3.966-6.648,3.966" fill="#FAA896"></path>
        <path d="M475.566,248.55s20.814,6.294,31.411-4.2a1.888,1.888,0,0,0-1.4-3.227c-7.8.292-23.88.265-22.512-5.027l-12.5,1.2" fill="#FAA896"></path>
      </g>
      <path d="M371.5,261.7a10.9,10.9,0,0,1-10.9-10.9c0-.173,0-.345.012-.518l2.953-62.414,21.779,1.03-2.382,50.348,94.905-5.24,1.2,21.772L372.1,261.683Q371.8,261.7,371.5,261.7Z" fill="#7DAB2E"></path>
      <path d="M474.462,237.48l-24.219-52.335c-2.009-9.09-7.653-15.362-20.8-15.926-4.015-.172-23.606-.2-37.95-.2-9.636,0-17.547,2.957-22.115,7.526-15.752,15.751,3.582,42.591,3.582,63.6s-9.5,30.419-8.8,41.2c1.1,16.945,83.429,12.941,87.624,3.316,4.319-9.926-4.447-16.041-4.063-48.509.022-1.921.115-3.891.253-5.892l10.182,22a10.5,10.5,0,0,0,9.309,6.088l64.191,1.35L532.1,238.7Z" fill="#7DAB2E"></path>
    </g>
  </g>
  <g>
    <g>
      <g>
        <path d="M692.28,575.216l20.854-2.479c-.939-7.893-2-17.374-2.072-18.928v.245h-21C690.067,554.683,690.067,556.6,692.28,575.216Z" fill="#FAA896"></path>
        <path d="M775.956,577.727l21-.068s-.07-21.685-.07-23.605h-21C775.886,555.98,775.956,577.727,775.956,577.727Z" fill="#FAA896"></path>
        <path d="M721.528,568.586l-37-.631c1.538-38.962,1.8-83.528,2.213-123.854A234.205,234.205,0,0,1,689,414.228c5.952-42.723,9.835-85.2,17.849-127.678l.267.079.781-5.33,76.077-4.7,3.96,49.7s9.91,171.948,14.429,241.085L765.5,570.509c-6.643-67.786-16.923-166.557-23.246-237.767-7.261,34.669-12.2,70.568-18.514,104.94C722.477,480.708,721.41,525.688,721.528,568.586Z" fill="#262626"></path>
        <path d="M750.428,585.849a4.106,4.106,0,0,1-4.088-4.125c0-.1,0-.2.012-.3h0a4.108,4.108,0,0,1,2.658-3.529l24.443-8.187a3.463,3.463,0,0,1,2.872.32,19.112,19.112,0,0,0,11.468,3.4,17.031,17.031,0,0,0,8.82-3.222,1.547,1.547,0,0,1,2.528,1.2v11.952a2.678,2.678,0,0,1-2.678,2.678h-.011Z" fill="#c1d8ed"></path>
        <path d="M666.694,585.849a4.108,4.108,0,0,1-4.088-4.128c0-.1,0-.2.012-.3h0a4.106,4.106,0,0,1,2.659-3.529l24.442-8.187a3.466,3.466,0,0,1,2.873.32,19.109,19.109,0,0,0,11.467,3.4,17.034,17.034,0,0,0,8.821-3.222,1.546,1.546,0,0,1,2.527,1.2v11.952a2.678,2.678,0,0,1-2.678,2.678h-.011Z" fill="#c1d8ed"></path>
      </g>
      <g>
        <path d="M586.726,228.858s-8.209-3.989-14.375-2.459c-2.794.694-3.716,1.618-3.485,2.51-1.359.367-2.273.942-2.312,1.823,0,0-.666,11.3,1.4,13.043,3.121,2.636,18.58.572,18.58.572Z" fill="#FAA896"></path>
        <path d="M622.161,247.335h59.478a10.5,10.5,0,0,0,8.842-4.836l37.582-58.668L710.38,172.5,675.9,226.335H622.161Z" fill="#7DAB2E"></path>
        <path d="M702.474,283.123c4.19,9.63,86.52,13.63,87.62-3.31.7-10.78-8.8-20.19-8.8-41.2s19.33-47.84,3.58-63.59c-4.57-4.57-12.46-7.52-22.08-7.53-.72,5.61-34.78,5.63-35.04.13-1.3.02-2.31.04-2.94.07-33.18,1.43-18.6,39.19-18.28,66.93C706.924,267.083,698.154,273.2,702.474,283.123Z" fill="#7DAB2E"></path>
        <path d="M727.754,167.623c.26,5.5,3.25,13.59,12.48,14.2,12.3.81,21.84-8.72,22.56-14.33h-.03C750.654,167.493,734.814,167.513,727.754,167.623Z" fill="#FAA896"></path>
        <rect x="590.82" y="199.052" width="100.969" height="83.967" fill="#7DAB2E"></rect>
        <rect x="590.82" y="199.052" width="100.969" height="83.967" fill="#0f1011" opacity="0.26"></rect>
        <rect x="568.82" y="199.052" width="90.969" height="83.967" fill="#7DAB2E"></rect>
        <path d="M692.13,239.587h-.023c-.152-.028-.308-.049-.465-.066-2.466-.345-13.7-1.827-16.447-.659-.924.393-.758,1.068-.147,1.788-5.044.477-9.39,1.714-9.519,5.491-.226,6.542,15.8,8.285,21.1,7.74C691.389,253.389,698.634,240.768,692.13,239.587Z" fill="#FAA896"></path>
        <path d="M687.705,257.9l61.88-1.887a10.9,10.9,0,0,0,9.322-5.834l30.552-58.254L770.149,181.8l-27.594,52.615-55.515,1.693Z" fill="#7DAB2E"></path>
      </g>
    </g>
    <g>
      <g>
        <path d="M753.334,153.419c-.01-.26-.01-.53-.01-.8-.01-1.82.07-3.8.25-5.96l-1.92-.36-1.94-.36-12.12-2.24a57.522,57.522,0,0,1-.16,10.66c-.05.48-.12.97-.19,1.46-.05.35-.11.69-.17,1.04-.01.09-.03.19-.05.29-.14.78-.3,1.55-.5,2.31a4.037,4.037,0,0,1-.12.46.241.241,0,0,1-.02.08c-.08.33-.18.67-.29.99-.11.37-.23.73-.37,1.09-.05.15-.11.3-.17.45a.574.574,0,0,1-.05.12c-.07.19-.15.37-.24.56a2.9,2.9,0,0,1-.13.31c-.17.38-.35.74-.54,1.09a.01.01,0,0,0-.01.01h0a11.649,11.649,0,0,1-3.11,3.81H756.6C755.044,165.749,753.444,161.129,753.334,153.419Z" fill="#FAA896"></path>
        <path d="M734.582,164.623l13.272-10.153-10.424-.108A28.747,28.747,0,0,1,734.582,164.623Z" fill="#c98481"></path>
        <path d="M762.637,138.5c-1.106,6.389-4.592,12.438-10.228,14.5a40.494,40.494,0,0,1-19.357,2.615c-17.49-1.434-14.03-41.2-5.727-48.926s32.673-2.833,35.638,10.087C764.5,123.455,763.69,132.415,762.637,138.5Z" fill="#FAA896"></path>
        <g>
          <circle cx="737.618" cy="132.126" r="1.449" fill="#0f1011"></circle>
          <circle cx="726.187" cy="131.188" r="1.449" fill="#0f1011"></circle>
          <path d="M723.676,128.1h.009l3.839-.047a.681.681,0,1,0-.009-1.362h-.009l-3.838.048a.681.681,0,0,0,.008,1.361Z" fill="#0f1011"></path>
          <path d="M740.747,129.5a.681.681,0,0,0,.158-1.343l-3.785-.911a.681.681,0,0,0-.337,1.32l.018,0,3.785.911A.675.675,0,0,0,740.747,129.5Z" fill="#0f1011"></path>
        </g>
        <path d="M752.635,152.234c.332,1.062.564,1.525,1.521.957,3.756-2.232,10.672-4.32,13.552-22.514,2.581-16.3-10.679-22.054-18.7-24.454-6.913-2.068-5.268-1.437-12.839,3.127-6.526,3.933-14.04,8.284-14.04,8.284,2.884.133,3.465,2.612,10.269,2.612,5.26,0,8.68-2.35,13.605-2.143,4.508.189,5.434,2.937,5.274,4.7C750.308,133.484,751.461,148.478,752.635,152.234Z" fill="#0f1011"></path>
        <path d="M745.156,135.671a6.143,6.143,0,0,0,12.244,1,6.039,6.039,0,0,0-5.414-6.607c-.068-.007-.137-.013-.206-.017C747.4,129.908,745.433,132.29,745.156,135.671Z" fill="#FAA896"></path>
        <g opacity="0.15">
          <path d="M731.186,140.162a.5.5,0,0,0,.147-.978l-2.947-.905,2.061-4.59a.5.5,0,0,0-.907-.422l0,.012-2.293,5.108a.5.5,0,0,0,.252.661q.029.012.057.021l3.488,1.071A.49.49,0,0,0,731.186,140.162Z"></path>
        </g>
        <path d="M747.854,127.214l3.424,1.15s-.446,12.144-1.712,18.321-2.251,14.228-6.181,15.113c-5.217,1.174-12.677,1.224-17.2-.392-5.1-1.822-4.976-20.727-4.976-20.727s16.4,1.777,20.944-.4S747.854,127.214,747.854,127.214Z" fill="#0f1011"></path>
        <path d="M736.948,143.537s-5.349.564-9.1-.746c0,0,.03,3.523,4.262,3.87S736.948,143.537,736.948,143.537Z" fill="#f8fcff"></path>
      </g>
      <path d="M751.78,130.051s10.174-1.168,15.869,1.137c0,0,5.394-27.279-20.673-29.8S722.67,120.58,722.67,120.58l20.544-1.228Z" fill="#262626"></path>
      <path d="M751.78,130.051s-8.872-6.814-16.269-6.814H720.5s-12.153-7.939-12.109-9.9c.091-4.084,21.656-3.717,26.194-1.956S751.78,130.051,751.78,130.051Z" fill="#262626"></path>
      <path d="M751.78,130.051s-8.872-6.814-16.269-6.814H720.5s-12.153-7.939-12.109-9.9c.091-4.084,21.656-3.717,26.194-1.956S751.78,130.051,751.78,130.051Z" opacity="0.21" style="isolation: isolate"></path>
    </g>
    <path d="M567.959,243.779a3.482,3.482,0,0,0,.93.528c1.794.37,6.315-.712,7.04-1.966,1.18-2.041.448-9.415-.593-12.091-.977-2.5-5.843-1.453-6.482-1.335a.261.261,0,0,1-.061.016c-1.327.364-2.2.933-2.237,1.806C566.556,230.737,565.886,242.027,567.959,243.779Z" fill="#FAA896"></path>
  </g>
  <g>
    <g>
      <path d="M105.591,528.555c-8.145-2.338-14.276-9.626-16.712-17.742s-1.578-16.924.8-25.057c1.941-6.637,4.884-13.053,5.609-19.93,2.415-22.9-19.8-46.3-9.344-66.815,3.38-6.635,9.921-11.821,11.088-19.175C98,373.754,95,367.844,93.513,361.868c-2.049-8.223-1.01-17.554,4.325-24.139s15.417-9.462,22.768-5.245c9.615,5.515,10.449,19.132,7.978,29.938s-7.051,21.922-4.032,32.588c2.878,10.166,12.243,17.821,13.922,28.252,1.4,8.671-2.837,17.126-4.7,25.71-2.924,13.491.052,27.476.179,41.279S130.189,519.535,105.591,528.555Z" fill="#8ddbe0"></path>
      <path d="M93.022,529.866a28.655,28.655,0,0,1-19.38-21.493c-1.594-8.214.364-17.44-4.132-24.5C63.418,474.31,57.172,473.23,49.588,464.8c-11.66-12.959-12.07-18.7-11.3-42.7.325-10.15-13.689-21.6-8.754-31.356,4.349-8.592,17.567-8.636,25.063-2.59s10.789,15.737,14.055,24.8,7.384,18.644,15.664,23.561c4.965,2.949,11.466,4.312,14.208,9.4,2.2,4.083,1.094,9.068.208,13.623-2.226,11.45-1.668,25.417,7.941,32.03,4.335,2.984,10.012,4.011,13.576,7.883,3.524,3.829,4.092,9.5,3.854,14.7a65.447,65.447,0,0,1-8.049,28.509" fill="#dee8f5"></path>
      <path d="M104.609,537.84c-8.651-9.885-9.874-25.544-2.863-36.652,5.883-9.321,16.846-15.74,19.148-26.518,2.05-9.6-3.636-19.521-1.934-29.188,1.851-10.513,11.563-17.412,19.278-24.789a26.894,26.894,0,0,0,5.122-6.186c3.393-6.107,2.447-13.6,3.6-20.489,2.206-13.195,13.078-24.9,26.278-27.081,11.577-1.913,19.87,4.737,19.87,16.985,0,14.509-10.87,20.727-16.415,27.3a51.031,51.031,0,0,0-11.89,34c.391,13.852,6.289,28.6-.012,40.941-4.624,9.057-14.5,13.886-22.261,20.458a56.588,56.588,0,0,0-19.708,40.346" fill="#fff"></path>
    </g>
    <rect x="72.136" y="515.09" width="69.811" height="69.811" fill="#7DAB2E"></rect>
    <g opacity="0.42">
      <rect x="72.136" y="528.702" width="69.811" height="13.626" fill="#fff"></rect>
    </g>
  </g>
  <g>
    <circle cx="565.154" cy="73.269" r="73.269" fill="#262626"></circle>
    <circle cx="565.154" cy="73.269" r="62.48" transform="translate(113.721 421.084) rotate(-45)" fill="#f3f5fd"></circle>
    <g>
      <path d="M596.455,63.244l-29.22,16.42a4.255,4.255,0,0,1-6.33-3.7V31.224a4.25,4.25,0,0,1,8.5,0V68.7l22.88-12.87a4.251,4.251,0,1,1,4.17,7.41Z" fill="#dee8f5"></path>
      <path d="M596.455,63.244l-29.22,16.42a4.255,4.255,0,0,1-6.33-3.7V31.224a4.25,4.25,0,0,1,8.5,0V68.7l22.88-12.87a4.251,4.251,0,1,1,4.17,7.41Z" fill="#262626"></path>
    </g>
  </g>
  <g>
    <circle cx="627.634" cy="122.307" r="33.659" fill="#7DAB2E"></circle>
    <path d="M621.141,140.351a2.965,2.965,0,0,1-2.035-.808l-14.383-13.572a2.964,2.964,0,0,1,4.069-4.312h0l12.185,11.5,25.339-27.923a2.964,2.964,0,0,1,4.39,3.984h0l-27.37,30.161a2.964,2.964,0,0,1-2.08.97Z" fill="#fff"></path>
  </g>
</svg>